<?xml version="1.0" encoding="utf-8"?>
<!-- Generator: Adobe Illustrator 24.3.0, SVG Export Plug-In . SVG Version: 6.00 Build 0)  -->
<svg version="1.1" id="Layer_1" xmlns="http://www.w3.org/2000/svg" xmlns:xlink="http://www.w3.org/1999/xlink" x="0px" y="0px"
	 viewBox="0 0 580 360" style="enable-background:new 0 0 580 360;" xml:space="preserve">
<style type="text/css">
	.st0{fill:#E8EBEE;}
	.st1{fill:#101A25;}
	.st2{fill:#DDE1E5;}
	.st3{clip-path:url(#SVGID_2_);fill:url(#SVGID_3_);}
	.st4{fill:#787878;}
	.st5{fill:none;stroke:#787878;stroke-width:0.5719;stroke-miterlimit:10;}
</style>
<path class="st0" d="M290,229.92c-6.17,0.06-54.82-0.06-59.73,0c-4.91,0.06-17.32,0.52-23.61,0.35c-6.29-0.18-13.27-2.14-17.48-2.49
	c-15.01-1.1-24.99,5.95-29.26,9.35c-4.12,3.29-9.75,10.57-12.47,15.01c-2.71,4.44-4.79,10.5-6.29,13.91
	c-1.5,3.41-13.62,34.86-14.83,37.8c-1.21,2.95-9.76,23.95-14.49,33.3c-4.73,9.35-7.33,11.95-9.52,13.27
	c-1.1,0.52-1.84,0.29-3.06-0.81L73,344.36c-7.1,2.68-22.16-8.31-29.61-21.47c-6.32-11.17-8.57-29.61-9.44-38.43
	c-0.86-8.83-2.77-24.93-1.12-50.29c0.92-14.3,4.15-41.81,9.95-67.44c6.17-27.27,15.57-58.34,19.74-69.69
	c4.07-11.08,13.59-36.36,21.3-51.33c2.16-3.81,3.38-6.75,4.41-9c1.04-2.25,7.01-2.34,8.75-2.6l1.12-8.48
	c0.43-3.38,13.16-10.3,29.95-14.54c16.1-3.55,29.26-0.87,34.8,0.26c0.95,0.26,1.34,0.72,1.5,1.44l1.28,9.3c0,0,3.55,0.34,5.11,0.78
	c5.71-1.99,23.8-3.72,28.04-4.15c3.12-0.95,10.65-1.47,14.98-1.82c23.55-1.99,58.12-2.86,76.82-2.86
	c18.81-0.06,52.17,0.84,75.66,2.86c4.33,0.34,11.86,0.86,14.98,1.82c4.24,0.43,22.33,2.16,28.05,4.15c1.56-0.43,5.1-0.78,5.1-0.78
	l1.27-8.95c0.12-1.12,0.55-1.53,1.5-1.79c5.54-1.13,18.7-3.81,34.8-0.26c16.79,4.24,29.52,11.17,29.95,14.54l1.12,8.48
	c1.73,0.26,7.71,0.34,8.75,2.6c1.04,2.25,2.25,5.19,4.41,9c7.71,14.98,17.23,40.25,21.3,51.33c4.17,11.35,13.56,42.41,19.74,69.69
	c5.8,25.62,9.03,53.14,9.95,67.44c1.65,25.36-0.26,41.46-1.12,50.29c-0.87,8.83-3.12,27.27-9.44,38.43
	c-7.44,13.16-22.51,24.15-29.61,21.47l-26.26,5.25c-1.21,1.1-1.96,1.33-3.06,0.81c-2.19-1.33-4.79-3.93-9.52-13.27
	c-4.73-9.35-13.27-30.35-14.49-33.3c-1.21-2.94-13.33-34.4-14.83-37.8c-1.5-3.4-3.58-9.46-6.29-13.91
	c-2.71-4.44-8.34-11.72-12.47-15.01c-4.27-3.4-14.25-10.44-29.26-9.35c-4.21,0.35-11.19,2.31-17.48,2.49
	c-6.29,0.17-18.7-0.29-23.61-0.35C344.82,229.86,296.17,229.98,290,229.92"/>
<path class="st1" d="M483.02,34.11c-3.38-0.23-23.4-4.96-33.91-6.92c-10.5-1.96-33.48-5.19-34.74-5.11l1.27-8.94
	c0.12-1.13,0.55-1.53,1.5-1.79c5.54-1.13,18.7-3.81,34.8-0.26c16.8,4.24,29.52,11.17,29.95,14.54L483.02,34.11z"/>
<path class="st1" d="M96.98,34.11c3.55-0.58,26.17-5.31,35.29-7.04c9.58-1.85,31.86-5.14,33.36-4.99l-1.28-9.3
	c-0.16-0.71-0.54-1.17-1.5-1.43c-5.54-1.13-18.7-3.81-34.8-0.26c-16.8,4.24-29.52,11.17-29.95,14.54L96.98,34.11z"/>
<path class="st1" d="M494.94,330.86c-5.77-16.04-22.62-63.36-26.66-72.95c-14.08-34.05-28.74-61.29-37.86-76.06
	c-14.08-24.93-37.51-49.51-42.3-57.54c-2.88-5.15-6.33-14.71-5.49-24.91l-0.01,0.03c-2.08,12.35-9.11,32.37-34.15,32.2H228.48
	c-9.43-0.49-17.74-4.05-24.41-13.39c-6.06-8.48-6.95-17.57-7.21-19.04l-0.06-0.51c0.82,8.93-0.37,18.39-5.19,25.67
	c-8.77,12.47-25.63,30.59-37.98,50.32c-12.35,19.74-30.36,55.52-38.78,75.49c-8.42,19.96-22.51,60.48-26.2,70.87
	c-3.69,10.38-7.27,22.16-15.64,23.31l26.26,5.25c1.27,0.29,3.44-1.36,5.34-5.86c4.93-11.6,11.51-28.22,15.84-38.61
	c10.56-25.28,23.98-56.79,39.13-69.08c7.27-5.8,16.62-9.87,29.61-8.28c4.21,0.35,11.2,2.31,17.49,2.48
	c6.29,0.18,18.7-0.29,23.6-0.34c4.91-0.06,53.56,0.06,59.73,0c6.17,0.06,54.83-0.06,59.73,0c4.91,0.06,17.32,0.52,23.61,0.34
	c6.29-0.17,13.27-2.13,17.49-2.48c18.35-1.96,32.2,6.7,43.28,25.16c11.46,19.1,33.94,72.02,40.51,89.68
	c2.65,6.46,4.73,7.04,6.11,6.98l26.26-5.25C505.33,344.37,500.02,344.13,494.94,330.86"/>
<path class="st2" d="M464.12,144.11c0,9.25-7.5,16.74-16.74,16.74c-9.25,0-16.74-7.49-16.74-16.74c0-9.24,7.49-16.74,16.74-16.74
	C456.62,127.37,464.12,134.86,464.12,144.11"/>
<path class="st2" d="M501.34,107c0,9.24-7.5,16.74-16.74,16.74c-9.25,0-16.74-7.49-16.74-16.74c0-9.24,7.49-16.74,16.74-16.74
	C493.85,90.27,501.34,97.76,501.34,107"/>
<path class="st2" d="M464.23,69.89c0,9.24-7.5,16.74-16.74,16.74c-9.25,0-16.74-7.49-16.74-16.74c0-9.24,7.49-16.74,16.74-16.74
	C456.74,53.16,464.23,60.65,464.23,69.89"/>
<path class="st2" d="M427.07,107.06c0,9.24-7.5,16.74-16.74,16.74c-9.25,0-16.74-7.49-16.74-16.74c0-9.24,7.49-16.74,16.74-16.74
	C419.57,90.32,427.07,97.82,427.07,107.06"/>
<path class="st2" d="M136.11,115.31c-1.91-1.9-5.11-2.51-7.71,0.17l-7.53,8.05c-0.95,0.95-1.73,2.17-1.9,3.81l-0.86,12.38
	c-0.16,2.3,0.42,5.72,3.72,7.71c2.15,1.29,5.54,1.73,10.39,1.73c11.86,0,14.89-3.72,14.54-9.35l-1.12-12.38
	c-0.18-1.56-0.69-2.77-2.17-4.33L136.11,115.31z"/>
<path class="st2" d="M140.65,103.51c-1.91,1.91-2.51,5.11,0.17,7.71l8.05,7.53c0.95,0.95,2.16,1.73,3.81,1.9l12.38,0.86
	c2.31,0.16,5.72-0.42,7.71-3.72c1.29-2.15,1.73-5.54,1.73-10.39c0-11.86-3.72-14.89-9.35-14.54l-12.38,1.13
	c-1.56,0.17-2.77,0.69-4.33,2.16L140.65,103.51z"/>
<path class="st2" d="M128.53,98.99c1.9,1.91,5.11,2.51,7.71-0.17l7.53-8.05c0.95-0.95,1.73-2.17,1.9-3.81l0.86-12.38
	c0.16-2.3-0.42-5.72-3.72-7.71c-2.15-1.29-5.54-1.73-10.39-1.73c-11.86,0-14.89,3.72-14.54,9.35L119,86.87
	c0.18,1.56,0.7,2.77,2.17,4.33L128.53,98.99z"/>
<path class="st2" d="M124.13,110.76c1.9-1.9,2.51-5.11-0.17-7.71l-8.05-7.53c-0.95-0.95-2.16-1.73-3.81-1.9l-12.38-0.86
	c-2.31-0.16-5.72,0.42-7.71,3.72c-1.29,2.15-1.73,5.54-1.73,10.39c0,11.86,3.72,14.89,9.35,14.54l12.38-1.13
	c1.56-0.17,2.77-0.69,4.33-2.16L124.13,110.76z"/>
<g>
	<defs>
		<path id="SVGID_1_" d="M390.75,28.74C390.76,28.74,390.76,28.74,390.75,28.74L390.75,28.74L390.75,28.74z M184.44,37.29l0.38,1.41
			L196.25,94l0.58,5.07c0.26,1.47,1.21,10.55,7.27,19.01c6.68,9.33,14.98,12.87,24.42,13.36h120.03
			c25.06,0.17,32.1-19.81,34.18-32.14l0.63-4.43c2.83-13.65,11.84-56.04,11.84-56.04l0.17-0.98c0.12-4.54-2.7-7.94-4.61-9.09
			c0.14,1.05,0.19,2.18,0.17,3.39c-0.12,5.82-1.38,9.91-2.31,14.46l-11.95,56.27c-0.98,4.32-3.58,10.02-7.74,13.59
			c-4.15,3.57-8.54,7.14-19.34,7.14l-120.63,0.09c-7.48,0-13.25-3.2-17.93-7.17c-4.27-3.63-6.81-8.98-7.91-14.28
			c-3.41-17.39-13.51-63.47-13.51-63.47c-0.64-3.96-0.83-7.4-0.37-10.29C186.73,30.03,184.53,33.96,184.44,37.29"/>
	</defs>
	<clipPath id="SVGID_2_">
		<use xlink:href="#SVGID_1_"  style="overflow:visible;"/>
	</clipPath>
	
		<linearGradient id="SVGID_3_" gradientUnits="userSpaceOnUse" x1="-327.5775" y1="573.9286" x2="-323.2775" y2="573.9286" gradientTransform="matrix(0 -23.945 -23.945 0 14032.6699 -7712.3979)">
		<stop  offset="0" style="stop-color:#393A39"/>
		<stop  offset="0.1839" style="stop-color:#393A39"/>
		<stop  offset="0.4834" style="stop-color:#1B4591"/>
		<stop  offset="0.8065" style="stop-color:#00519B"/>
		<stop  offset="0.9404" style="stop-color:#1B4591"/>
		<stop  offset="1" style="stop-color:#1B4591"/>
	</linearGradient>
	<rect x="184.44" y="28.47" class="st3" width="211.04" height="103.13"/>
</g>
<path class="st4" d="M285.81,159.82v23.02l5.27,1.65v-19.31c0-0.91,0.37-1.44,1.05-1.31c0.49,0.1,1.05,0.46,1.05,1.98v7.71
	c3.29,1.57,5.87,0,5.87-4.14c0-4.24-1.51-6.13-5.98-7.65C291.32,161.2,288.05,160.23,285.81,159.82"/>
<path class="st4" d="M292.08,181.13l8.48-2.98c0.96-0.34,1.11-0.82,0.33-1.07c-0.78-0.25-2.2-0.18-3.16,0.16l-5.65,1.97v-3.13
	l0.33-0.11c0,0,1.63-0.57,3.93-0.82c2.29-0.25,5.1,0.03,7.31,0.86c2.49,0.77,2.76,1.92,2.13,2.7c-0.63,0.79-2.18,1.35-2.18,1.35
	l-11.52,4.09V181.13z"/>
<path class="st4" d="M276.14,180.81c-2.55-0.71-2.98-2.19-1.81-3.04c1.08-0.79,2.91-1.38,2.91-1.38l7.56-2.65v3.03l-5.44,1.92
	c-0.96,0.34-1.11,0.82-0.33,1.07c0.78,0.25,2.2,0.18,3.16-0.16l2.61-0.94v2.71c-0.16,0.03-0.35,0.06-0.52,0.09
	C281.66,181.88,278.88,181.7,276.14,180.81"/>
<polygon class="st4" points="438.9,136.84 446.34,144.4 438.84,152.02 439.99,153.17 447.44,145.67 455.12,153 456.33,151.96 
	448.71,144.45 456.21,136.95 455.06,135.8 447.55,143.25 440.11,135.69 "/>
<path class="st4" d="M484.92,96.38c-5.85,0-10.59,4.74-10.59,10.59s4.74,10.59,10.59,10.59c5.85,0,10.59-4.74,10.59-10.59
	S490.77,96.38,484.92,96.38 M484.92,115.91c-4.93,0-8.93-4-8.93-8.93c0-4.93,4-8.93,8.93-8.93c4.93,0,8.93,4,8.93,8.93
	C493.85,111.91,489.86,115.91,484.92,115.91"/>
<path class="st4" d="M447.53,57.54l-10.65,18.53l21.35-0.12L447.53,57.54z M447.53,60.78l7.85,13.62l-15.64,0.09L447.53,60.78z"/>
<path class="st4" d="M401.5,115.95h17.66V98.29H401.5V115.95z M417.49,114.26h-14.33V99.94h14.33V114.26z"/>
<path class="st5" d="M274.36,139.32c0,1.53-1.24,2.77-2.77,2.77c-1.53,0-2.77-1.24-2.77-2.77c0-1.53,1.24-2.77,2.77-2.77
	C273.12,136.55,274.36,137.79,274.36,139.32z"/>
<path class="st5" d="M283.48,139.32c0,1.53-1.24,2.77-2.77,2.77c-1.53,0-2.77-1.24-2.77-2.77c0-1.53,1.24-2.77,2.77-2.77
	C282.24,136.55,283.48,137.79,283.48,139.32z"/>
<path class="st5" d="M292.77,139.32c0,1.53-1.24,2.77-2.77,2.77c-1.53,0-2.77-1.24-2.77-2.77c0-1.53,1.24-2.77,2.77-2.77
	C291.53,136.55,292.77,137.79,292.77,139.32z"/>
<path class="st5" d="M301.83,139.32c0,1.53-1.24,2.77-2.77,2.77c-1.53,0-2.77-1.24-2.77-2.77c0-1.53,1.24-2.77,2.77-2.77
	C300.59,136.55,301.83,137.79,301.83,139.32z"/>
<path class="st5" d="M310.95,139.26c0,1.53-1.24,2.77-2.77,2.77c-1.53,0-2.77-1.24-2.77-2.77c0-1.53,1.24-2.77,2.77-2.77
	C309.71,136.49,310.95,137.73,310.95,139.26z"/>
<path class="st5" d="M306.45,147.23c0,1.53-1.24,2.77-2.77,2.77c-1.53,0-2.77-1.24-2.77-2.77c0-1.53,1.24-2.77,2.77-2.77
	C305.21,144.46,306.45,145.7,306.45,147.23z"/>
<path class="st5" d="M297.27,147.23c0,1.53-1.24,2.77-2.77,2.77c-1.53,0-2.77-1.24-2.77-2.77c0-1.53,1.24-2.77,2.77-2.77
	C296.03,144.46,297.27,145.7,297.27,147.23z"/>
<path class="st5" d="M288.15,147.17c0,1.53-1.24,2.77-2.77,2.77c-1.53,0-2.77-1.24-2.77-2.77c0-1.53,1.24-2.77,2.77-2.77
	C286.91,144.4,288.15,145.64,288.15,147.17z"/>
<path class="st5" d="M278.86,147.17c0,1.53-1.24,2.77-2.77,2.77c-1.53,0-2.77-1.24-2.77-2.77c0-1.53,1.24-2.77,2.77-2.77
	C277.62,144.4,278.86,145.64,278.86,147.17z"/>
<path class="st4" d="M286.83,224.9c0.4,0.35,0.81,0.58,1.62,0.58h2.94c0.58,0,1.44-0.12,1.68-0.58"/>
<path class="st4" d="M135.86,137.77l-3.3,3.18c-0.21,0.2-0.54,0.2-0.74-0.01l-3.26-3.22c-0.34-0.34-0.1-0.91,0.38-0.91l6.56,0.04
	C135.97,136.86,136.2,137.44,135.86,137.77"/>
<path class="st4" d="M162.66,103.76l3.18,3.3c0.2,0.21,0.2,0.53-0.01,0.74l-3.22,3.26c-0.34,0.34-0.91,0.1-0.91-0.38l0.04-6.56
	C161.75,103.65,162.33,103.42,162.66,103.76"/>
<path class="st4" d="M128.78,76.53l3.3-3.18c0.21-0.2,0.53-0.2,0.74,0.01l3.26,3.22c0.34,0.34,0.1,0.91-0.38,0.91l-6.56-0.04
	C128.67,77.44,128.43,76.86,128.78,76.53"/>
<path class="st4" d="M101.62,110.96l-3.18-3.3c-0.2-0.21-0.2-0.54,0.01-0.74l3.22-3.26c0.34-0.34,0.91-0.1,0.91,0.38l-0.04,6.56
	C102.53,111.07,101.95,111.31,101.62,110.96"/>
<rect x="169.02" y="30.92" class="st4" width="0.95" height="4.87"/>
<polygon class="st4" points="167.48,36.11 166.67,36.58 164.78,33.31 165.59,32.84 "/>
<polygon class="st4" points="171.52,36.11 172.33,36.58 174.21,33.31 173.41,32.84 "/>
<rect x="406.54" y="30.38" class="st4" width="7.13" height="0.83"/>
<rect x="406.54" y="33.02" class="st4" width="7.13" height="0.84"/>
<rect x="406.54" y="35.67" class="st4" width="7.13" height="0.84"/>
<polygon class="st4" points="286.35,213.48 292.97,218.77 293.43,218.39 286.81,213.1 "/>
<path class="st4" d="M291.21,215.63h0.66v0.92c0,0.02,0,0.03,0,0.05l0.56,0.45c0.06-0.16,0.1-0.33,0.1-0.5v-1.33h-1.32v-2
	c0-0.32-0.33-0.58-0.73-0.58h-1.2c-0.4,0-0.73,0.26-0.73,0.58v0.74l2.65,2.12V215.63z"/>
<path class="st4" d="M290.49,218.18c0.31,0,0.6-0.06,0.86-0.15l-0.52-0.41c-0.11,0.02-0.23,0.03-0.35,0.03h-1.19
	c-0.77,0-1.39-0.5-1.39-1.11v-0.92h0.44l-0.52-0.42h-0.58v1.34c0,0.9,0.92,1.64,2.06,1.64h0.26v0.53h-1h0.01
	c-0.18,0-0.34,0.12-0.34,0.27c0,0.15,0.15,0.26,0.34,0.26h2.64c0.19,0,0.33-0.12,0.33-0.26c0-0.15-0.15-0.27-0.33-0.27h0h-0.99
	v-0.53H290.49z"/>
<path class="st4" d="M289.29,217.13h0.92l-1.65-1.32v0.74C288.57,216.86,288.89,217.13,289.29,217.13"/>
<path class="st4" d="M547.45,234.15c-0.79-12.22-3.78-40.17-9.96-67.48c-6.05-26.76-15.52-58.21-19.75-69.72
	c-4.77-12.98-13.87-36.91-21.32-51.38c-1.73-3.05-2.86-5.55-3.76-7.57c-0.23-0.5-0.44-0.97-0.64-1.41c-0.92-2-5.17-2.4-7.71-2.63
	c-0.41-0.04-0.76-0.07-1.04-0.1l-1.1-8.26c-0.45-3.5-12.95-10.44-30.18-14.79c-16.13-3.56-29.28-0.89-34.93,0.26
	c-1.13,0.31-1.59,0.86-1.71,2.03l-1.24,8.72c-0.79,0.08-3.46,0.37-4.84,0.74c-5.49-1.87-21.76-3.5-27.12-4.05l-0.86-0.08
	c-2.86-0.87-9.43-1.39-13.78-1.73l-1.26-0.1c-22.59-1.94-55.89-2.92-75.68-2.86c-16.65,0-52.22,0.77-76.84,2.86l-1.26,0.1
	c-4.35,0.34-10.92,0.86-13.73,1.72l-0.91,0.09c-5.36,0.54-21.63,2.18-27.12,4.05c-1.38-0.37-4.05-0.66-4.85-0.74l-1.25-9.1
	c-0.2-0.89-0.71-1.38-1.74-1.66c-5.62-1.14-18.76-3.81-34.9-0.25c-17.22,4.35-29.72,11.28-30.17,14.78l-1.1,8.26
	c-0.28,0.03-0.64,0.06-1.04,0.1c-2.54,0.23-6.79,0.62-7.71,2.63c-0.21,0.44-0.42,0.92-0.64,1.41c-0.9,2.02-2.03,4.52-3.77,7.58
	c-7.44,14.47-16.55,38.39-21.31,51.37c-4.23,11.51-13.69,42.96-19.75,69.72c-6.18,27.3-9.17,55.26-9.96,67.48
	c-1.54,23.75,0.02,39.27,0.95,48.54l0.18,1.8c1.72,17.51,4.9,30.48,9.47,38.55c7.57,13.39,22.61,24.25,29.88,21.62l26.1,5.22
	c1.13,1.01,2,1.43,3.34,0.79c2.14-1.29,4.78-3.81,9.63-13.39c2.92-5.76,7.67-16.67,14.13-32.41l0.37-0.91
	c0.47-1.13,2.56-6.51,4.98-12.74c3.98-10.23,8.93-22.96,9.85-25.06c0.42-0.95,0.88-2.11,1.38-3.34c1.31-3.27,2.95-7.34,4.9-10.53
	c2.89-4.73,8.45-11.78,12.4-14.93c8.7-6.94,18.49-10.07,29.06-9.29c1.66,0.14,3.82,0.54,6.11,0.96c3.56,0.66,7.59,1.41,11.4,1.52
	c4.36,0.12,11.55-0.06,17.32-0.21c2.55-0.06,4.78-0.12,6.29-0.14c2.44-0.03,15.42-0.02,29.17,0c13.49,0.01,27.44,0.03,30.56,0
	c3.11,0.03,17.07,0.01,30.56,0c13.75-0.02,26.73-0.03,29.17,0c1.51,0.02,3.75,0.07,6.29,0.14c5.78,0.15,12.97,0.32,17.32,0.21
	c3.81-0.1,7.84-0.86,11.39-1.52c2.29-0.43,4.44-0.83,6.11-0.96h0.01c0,0,0.01,0,0.02,0c10.58-0.76,20.34,2.36,29.03,9.29
	c3.96,3.15,9.52,10.2,12.4,14.93c1.95,3.2,3.59,7.27,4.9,10.53c0.49,1.23,0.96,2.4,1.38,3.34c0.92,2.09,5.87,14.83,9.85,25.06
	c2.42,6.23,4.51,11.61,4.98,12.74l0.37,0.91c6.45,15.74,11.21,26.65,14.13,32.41c4.85,9.58,7.49,12.1,9.65,13.4
	c0.42,0.2,0.8,0.29,1.16,0.29c0.75,0,1.39-0.41,2.15-1.09l26.11-5.22c7.26,2.62,22.3-8.24,29.88-21.62
	c4.57-8.08,7.76-21.04,9.47-38.55l0.18-1.81C547.44,273.4,548.99,257.89,547.45,234.15 M417.22,11.62
	c5.58-1.13,18.64-3.78,34.65-0.25c13.94,3.52,24,8.47,27.93,11.86c-2.28-0.32-7.12-1.31-13.07-2.52
	c-11.27-2.3-26.71-5.46-35.11-6.15c-1.1-0.18-3.13-0.33-5.48-0.5c-3.6-0.27-8.02-0.61-10.17-1.14
	C416.1,12.08,416.48,11.83,417.22,11.62 M415.88,13.49c2.21,0.54,6.44,0.86,10.21,1.14c2.34,0.17,4.36,0.32,5.46,0.5
	c8.39,0.7,23.81,3.84,35.07,6.14c6.72,1.37,12.02,2.46,13.87,2.63v-0.02c0.68,0.69,1.06,1.3,1.13,1.79l1.08,8.12
	c-2.29-0.26-9.1-1.73-16.3-3.29c-6.19-1.34-12.59-2.72-17.23-3.59c-9.8-1.83-31.3-4.89-34.47-5.1L415.88,13.49z M382.35,99.39h-0.01
	c-4.44,26.37-20.63,31.96-33.56,31.96c-0.1,0-0.21,0-0.31,0H228.49c-10.42-0.54-18.11-4.76-24.19-13.27
	c-3.65-5.1-6.02-11.28-7.07-18.37c-0.04-0.24-0.06-0.43-0.09-0.55h-0.01c-0.16-1.91-0.39-3.64-0.64-5.09l-11.43-55.41
	c-0.11-0.47-0.23-0.93-0.37-1.38c0.09-2.98,1.93-6.51,4.19-8.2c-0.32,2.57-0.23,5.77,0.41,9.77c0.1,0.46,10.14,46.36,13.5,63.59
	c1.24,5.99,4.08,11.13,8.01,14.47c5.73,4.88,11.65,7.25,18.1,7.25l120.59-0.09c11.13,0,15.59-3.84,19.52-7.23
	c4.31-3.71,6.87-9.55,7.83-13.78l11.95-56.39c0.21-1.02,0.43-2.03,0.66-3.03c0.77-3.42,1.57-6.96,1.66-11.5
	c0.02-1-0.01-1.94-0.09-2.82c1.85,1.39,4.24,4.58,4,8.51h0.01c-0.07,0.31-0.15,0.62-0.21,0.94c-0.09,0.43-9.03,42.63-11.83,56.15
	C382.67,96.45,382.47,97.93,382.35,99.39 M191.66,22.21c-5.52,2.67-8.08,6.39-8.15,11.9c-2.7-5.81-7.56-9.7-11.83-11.23
	c5.4-1.57,18.03-2.95,24.29-3.59C194.35,19.93,192.86,20.83,191.66,22.21 M184.11,35.51c-0.35-5.74,1.68-9.47,6.74-12.25
	c-0.86,1.3-1.5,2.93-1.84,5.01c-2.27,1.44-4.21,4.67-4.74,7.68C184.22,35.82,184.17,35.66,184.11,35.51 M395.51,36
	c-0.49-3.57-2.89-6.34-4.59-7.43c-0.28-2.08-0.89-3.81-1.84-5.25c4.76,2.52,6.85,6.23,6.7,11.87
	C395.68,35.46,395.59,35.72,395.51,36 M396.33,33.75c-0.24-5.45-2.76-9.02-8.02-11.45c-1.12-1.28-2.6-2.28-4.47-3.04
	c6.17,0.63,18.92,2.02,24.42,3.59C402.78,24.5,398.62,28.35,396.33,33.75 M212.52,17.27l1.26-0.1c24.6-2.08,60.16-2.86,76.79-2.86
	c19.84-0.06,53.06,0.92,75.64,2.86l1.26,0.1c4.3,0.34,10.79,0.85,13.67,1.71v0c6.73,1.73,9.54,5.67,9.39,13.16
	c-0.09,4.48-0.88,7.99-1.64,11.39c-0.23,1.01-0.46,2.01-0.66,3.04l-11.95,56.38c-0.94,4.14-3.44,9.85-7.64,13.47
	c-3.86,3.32-8.23,7.09-19.15,7.09l-120.59,0.09c-6.31,0-12.11-2.33-17.74-7.12c-3.82-3.26-6.6-8.29-7.81-14.15
	c-3.37-17.23-13.41-63.15-13.5-63.59c-1.62-10.14-0.71-17.39,8.99-19.76l0.02,0C201.67,18.13,208.2,17.61,212.52,17.27
	 M128.12,11.37c16.02-3.53,29.08-0.88,34.67,0.26c0.75,0.2,1.05,0.54,1.2,0.95c-2.62,0.69-5.78,1.08-9.75,1.58
	c-5.36,0.67-12.69,1.59-22.71,3.75c-11.19,2.08-28.89,6.32-33.01,7.33C99.86,22.1,111.09,15.67,128.12,11.37 M98.36,25.87
	c3.47-0.86,21.8-5.27,33.27-7.4c10.01-2.16,17.33-3.07,22.67-3.74c3.98-0.49,7.15-0.89,9.8-1.59l1.19,8.66
	c-3.26,0.15-24.2,3.28-33.08,4.99c-4.36,0.83-11.71,2.32-18.81,3.77c-7.08,1.44-13.79,2.8-16.09,3.21L98.36,25.87z M43.64,322.75
	c-4.53-8-7.69-20.89-9.4-38.32l-0.18-1.8c-0.92-9.25-2.48-24.74-0.94-48.44c0.79-12.2,3.78-40.12,9.95-67.39
	c6.05-26.74,15.51-58.15,19.73-69.65c4.76-12.96,13.85-36.86,21.28-51.29c1.75-3.07,2.88-5.59,3.79-7.61
	c0.22-0.5,0.43-0.97,0.64-1.41c0.79-1.7,4.98-2.09,7.24-2.3c0.53-0.05,0.98-0.09,1.29-0.13h0v0l0.21-0.03l0,0
	c2.12-0.36,9-1.76,16.28-3.24c7.1-1.44,14.44-2.94,18.81-3.77c9.74-1.88,31.82-5.13,33.28-4.99c0.03,0,3.54,0.35,5.06,0.77
	c5.33,1.54,11.94,7.1,13.85,15.65l11.43,55.39c1.17,6.87,2.13,19.9-4.57,30.02c-3.29,4.68-7.83,10.29-12.65,16.24
	c-8.26,10.2-17.62,21.77-25.34,34.1c-12.55,20.06-30.52,55.9-38.8,75.53c-7.34,17.4-18.79,49.87-24.29,65.47
	c-0.79,2.24-1.44,4.08-1.91,5.42c-0.24,0.68-0.49,1.38-0.73,2.07c-3.45,9.82-7.02,19.96-14.64,21.04l-0.02,0l-0.08,0.03
	C66.03,346.7,50.98,335.72,43.64,322.75 M159.74,236.91c-4,3.19-9.62,10.31-12.53,15.08c-1.98,3.24-3.62,7.34-4.94,10.63
	c-0.49,1.23-0.96,2.39-1.37,3.32c-0.93,2.11-5.88,14.85-9.86,25.08c-2.42,6.23-4.51,11.6-4.97,12.72l-0.37,0.91
	c-6.45,15.73-11.19,26.62-14.1,32.37c-4.79,9.45-7.35,11.91-9.39,13.15c-0.78,0.37-1.36,0.31-2.17-0.29c1.32-0.32,3.14-2,4.84-6
	c2.89-6.79,6.28-15.16,9.57-23.26c2.3-5.68,4.48-11.04,6.28-15.35c9.95-23.8,23.56-56.41,39.04-68.96
	c5.84-4.66,12.11-7.38,19.01-8.26C171.98,229.27,165.61,232.23,159.74,236.91 M477.83,350.18c-2.06-1.25-4.63-3.71-9.41-13.16
	c-2.91-5.75-7.65-16.64-14.1-32.37l-0.37-0.91c-0.46-1.12-2.55-6.5-4.97-12.72c-3.98-10.23-8.94-22.97-9.86-25.08
	c-0.41-0.93-0.87-2.09-1.37-3.32c-1.32-3.29-2.96-7.38-4.94-10.63c-2.91-4.76-8.53-11.89-12.53-15.08
	c-4.7-3.75-9.71-6.39-14.99-7.92c11.15,2.82,20.59,10.78,28.59,24.11c11.46,19.09,34.03,72.29,40.49,89.64
	c2.26,5.5,4.15,6.87,5.64,7.12C479.18,350.47,478.6,350.54,477.83,350.18 M480.71,349.33c-1.4,0.05-3.31-0.69-5.82-6.8
	c-6.47-17.36-29.06-70.61-40.54-89.73c-11.37-18.94-25.62-27.21-43.56-25.3c-1.69,0.14-3.86,0.55-6.16,0.97
	c-3.53,0.66-7.55,1.41-11.31,1.51c-4.33,0.12-11.52-0.06-17.29-0.21c-2.55-0.06-4.78-0.12-6.3-0.14c-2.44-0.03-15.43-0.02-29.18,0
	c-13.49,0.01-27.45,0.03-30.56,0h0c-3.1,0.03-17.06,0.01-30.56,0c-13.75-0.02-26.74-0.03-29.18,0c-1.52,0.02-3.75,0.07-6.3,0.14
	c-5.77,0.15-12.96,0.32-17.3,0.21c-3.76-0.1-7.77-0.85-11.3-1.51c-2.29-0.43-4.46-0.83-6.15-0.97c-11.3-1.38-21.05,1.35-29.82,8.35
	c-15.59,12.65-29.24,45.33-39.21,69.19c-1.8,4.31-3.97,9.67-6.28,15.36c-3.29,8.1-6.68,16.47-9.56,23.25
	c-1.81,4.28-3.87,5.96-5.01,5.69l-24.91-4.98c7.04-2.04,10.45-11.73,13.76-21.13c0.25-0.69,0.49-1.38,0.74-2.07
	c0.47-1.34,1.12-3.18,1.91-5.42c5.5-15.6,16.94-48.05,24.28-65.43c8.27-19.61,26.22-55.41,38.76-75.44
	c7.7-12.3,17.05-23.85,25.29-34.04c4.82-5.95,9.37-11.57,12.68-16.28c4.42-6.67,5.56-14.55,5.5-21.17c1.26,5.7,3.43,10.76,6.5,15.06
	c6.19,8.66,14.01,12.96,24.64,13.51h119.98c0.11,0,0.22,0,0.32,0c22.65,0,30.62-16.76,33.42-28.93c0.09,10.83,4.58,19.51,5.66,21.46
	c1.67,2.8,5.59,7.59,10.54,13.65c9.52,11.65,22.56,27.6,31.76,43.89c4.55,7.37,20.72,34.63,37.84,76.02
	c3.42,8.11,15.87,42.85,23.31,63.61c1.32,3.68,2.46,6.87,3.35,9.33c3.03,7.92,6.58,12.44,10.56,13.46L480.71,349.33z M545.94,282.62
	l-0.18,1.81c-1.71,17.42-4.87,30.31-9.4,38.32c-7.34,12.97-22.38,23.94-29.26,21.35l-0.08-0.03l-0.04,0.01
	c-4.44-0.01-8.4-4.49-11.77-13.31c-0.89-2.46-2.03-5.65-3.35-9.33c-7.44-20.76-19.9-55.51-23.32-63.63
	c-17.13-41.43-33.33-68.72-37.87-76.09c-9.22-16.32-22.28-32.3-31.82-43.96c-4.94-6.05-8.85-10.82-10.49-13.57
	c-3.67-6.57-7.13-18.13-4.82-29.12c2.8-13.52,11.74-55.72,11.83-56.16c1.54-8.17,6.61-13.91,13.92-15.75l0.04-0.01
	c1.5-0.42,4.98-0.76,5.05-0.77c0.01,0,0.03,0,0.05,0c1.65,0,23.79,3.08,34.62,5.1c4.63,0.86,11.03,2.25,17.21,3.59
	c7.62,1.65,14.82,3.21,16.73,3.34c0.31,0.04,0.74,0.09,1.26,0.13c2.26,0.21,6.45,0.6,7.24,2.3c0.2,0.44,0.41,0.91,0.64,1.41
	c0.91,2.02,2.04,4.54,3.78,7.6c7.43,14.43,16.52,38.33,21.28,51.3c4.22,11.49,13.67,42.91,19.73,69.65
	c6.17,27.27,9.15,55.19,9.95,67.39C548.42,257.88,546.87,273.36,545.94,282.62"/>
<path class="st4" d="M447.38,127.09c-9.39,0-17.02,7.64-17.02,17.02c0,9.39,7.64,17.02,17.02,17.02c9.39,0,17.02-7.64,17.02-17.02
	C464.4,134.72,456.77,127.09,447.38,127.09 M447.38,160.56c-9.07,0-16.45-7.38-16.45-16.45c0-9.07,7.38-16.45,16.45-16.45
	c9.07,0,16.45,7.38,16.45,16.45C463.83,153.18,456.45,160.56,447.38,160.56"/>
<path class="st4" d="M484.61,89.98c-9.39,0-17.02,7.64-17.02,17.02c0,9.39,7.64,17.02,17.02,17.02c9.39,0,17.02-7.64,17.02-17.02
	C501.63,97.62,493.99,89.98,484.61,89.98 M484.61,123.45c-9.07,0-16.45-7.38-16.45-16.45s7.38-16.45,16.45-16.45
	c9.07,0,16.45,7.38,16.45,16.45S493.68,123.45,484.61,123.45"/>
<path class="st4" d="M447.5,52.87c-9.39,0-17.02,7.64-17.02,17.02c0,9.39,7.64,17.02,17.02,17.02c9.39,0,17.02-7.64,17.02-17.02
	C464.52,60.51,456.88,52.87,447.5,52.87 M447.5,86.34c-9.07,0-16.45-7.38-16.45-16.45s7.38-16.45,16.45-16.45
	c9.07,0,16.45,7.38,16.45,16.45S456.57,86.34,447.5,86.34"/>
<path class="st4" d="M405.96,63.08c0.31,0.05,0.61,0.07,0.91,0.07c2.88,0,5.42-2.1,5.87-5.02l2.37-10.99
	c0.24-1.56-0.14-3.13-1.07-4.4c-0.94-1.29-2.33-2.14-3.9-2.38c-3.25-0.5-6.27,1.72-6.78,4.96l-2.37,10.99
	c-0.24,1.56,0.14,3.12,1.07,4.4C403,61.99,404.38,62.84,405.96,63.08 M401.55,56.41l2.37-10.97l0-0.02c0.41-2.65,2.7-4.55,5.31-4.55
	c0.27,0,0.54,0.02,0.82,0.06c1.42,0.22,2.67,0.98,3.53,2.15c0.84,1.15,1.18,2.57,0.96,3.96l-2.37,10.99
	c-0.45,2.92-3.19,4.94-6.12,4.49c-1.42-0.22-2.68-0.98-3.53-2.15C401.68,59.21,401.34,57.8,401.55,56.41"/>
<path class="st4" d="M410.33,90.04c-9.39,0-17.02,7.64-17.02,17.02c0,9.39,7.64,17.02,17.02,17.02c9.39,0,17.02-7.64,17.02-17.02
	C427.35,97.67,419.72,90.04,410.33,90.04 M410.33,123.51c-9.07,0-16.45-7.38-16.45-16.45s7.38-16.45,16.45-16.45
	c9.07,0,16.45,7.38,16.45,16.45S419.4,123.51,410.33,123.51"/>
<path class="st4" d="M293.06,224.62h-6.23c-1.08,0-1.83,0.83-1.83,1.57c0,0.37,0.18,0.69,0.49,0.91c0.33,0.22,0.8,0.34,1.39,0.34h6
	c0.55,0,0.98-0.12,1.29-0.35c0.28-0.22,0.44-0.54,0.44-0.9C294.61,225.45,293.95,224.62,293.06,224.62 M293.82,226.63
	c-0.2,0.15-0.52,0.24-0.94,0.24h-6c-0.59,0-0.91-0.13-1.07-0.25c-0.16-0.11-0.25-0.26-0.25-0.43c0-0.46,0.55-1,1.26-1h6.23
	c0.55,0,0.98,0.55,0.98,0.99C294.04,226.37,293.97,226.52,293.82,226.63"/>
<path class="st4" d="M299.47,200.9h-19.04c-1.5,0-2.71,1.22-2.71,2.71c0,1.49,1.21,2.71,2.71,2.71h19.04c1.5,0,2.71-1.22,2.71-2.71
	C302.17,202.11,300.96,200.9,299.47,200.9 M299.47,205.74h-19.04c-1.18,0-2.14-0.96-2.14-2.13c0-1.18,0.96-2.14,2.14-2.14h19.04
	c1.18,0,2.14,0.95,2.14,2.14C301.6,204.79,300.64,205.74,299.47,205.74"/>
<path class="st4" d="M370.78,146.17c-16.62,0-30.15,13.53-30.15,30.16s13.53,30.15,30.15,30.15c16.63,0,30.15-13.52,30.15-30.15
	S387.4,146.17,370.78,146.17 M370.78,205.9c-16.31,0-29.58-13.27-29.58-29.58c0-16.31,13.27-29.58,29.58-29.58
	c16.31,0,29.58,13.27,29.58,29.58C400.35,192.63,387.08,205.9,370.78,205.9"/>
<path class="st4" d="M370.78,138.04c-21.12,0-38.3,17.18-38.3,38.3s17.18,38.3,38.3,38.3c21.12,0,38.3-17.18,38.3-38.3
	S391.9,138.04,370.78,138.04 M370.78,214.07c-20.81,0-37.73-16.92-37.73-37.73s16.92-37.73,37.73-37.73
	c20.81,0,37.73,16.92,37.73,37.73S391.58,214.07,370.78,214.07"/>
<path class="st4" d="M370.78,156.74c-10.79,0-19.57,8.78-19.57,19.58c0,10.79,8.78,19.57,19.57,19.57
	c10.79,0,19.57-8.78,19.57-19.57C390.35,165.52,381.57,156.74,370.78,156.74 M370.78,195.31c-10.48,0-19-8.52-19-19
	c0-10.48,8.52-19,19-19c10.48,0,19,8.52,19,19C389.78,186.79,381.25,195.31,370.78,195.31"/>
<path class="st4" d="M209.4,146.18c-16.63,0-30.15,13.53-30.15,30.16s13.52,30.15,30.15,30.15c16.63,0,30.15-13.52,30.15-30.15
	S226.03,146.18,209.4,146.18 M209.4,205.91c-16.31,0-29.58-13.27-29.58-29.58c0-16.31,13.27-29.58,29.58-29.58
	c16.31,0,29.58,13.27,29.58,29.58C238.98,192.64,225.71,205.91,209.4,205.91"/>
<path class="st4" d="M209.4,138.03c-21.33,0-38.68,17.18-38.68,38.3s17.35,38.3,38.68,38.3c21.33,0,38.68-17.18,38.68-38.3
	S230.73,138.03,209.4,138.03 M209.4,214.06c-21.01,0-38.11-16.92-38.11-37.73s17.1-37.73,38.11-37.73
	c21.01,0,38.11,16.92,38.11,37.73S230.41,214.06,209.4,214.06"/>
<path class="st4" d="M209.4,156.75c-10.79,0-19.57,8.78-19.57,19.57c0,10.8,8.78,19.58,19.57,19.58c10.79,0,19.57-8.78,19.57-19.58
	C228.97,165.54,220.19,156.75,209.4,156.75 M209.4,195.33c-10.48,0-19-8.52-19-19c0-10.47,8.52-19,19-19c10.48,0,19,8.52,19,19
	C228.4,186.81,219.88,195.33,209.4,195.33"/>
<path class="st4" d="M167.09,58.83c0.71,2.66,3.11,4.42,5.74,4.42c0.51,0,1.02-0.06,1.53-0.2c1.54-0.41,2.83-1.4,3.62-2.78
	c0.79-1.37,1-2.96,0.6-4.48l-2.24-11.02c-0.84-3.16-4.1-5.06-7.27-4.21c-1.54,0.41-2.83,1.4-3.62,2.78c-0.79,1.37-1,2.96-0.59,4.48
	L167.09,58.83z M165.94,43.63c0.72-1.25,1.88-2.14,3.27-2.51c0.46-0.12,0.93-0.18,1.38-0.18c2.37,0,4.55,1.59,5.19,3.97l2.24,11.02
	c0.37,1.38,0.17,2.82-0.54,4.05c-0.72,1.25-1.88,2.14-3.27,2.51c-2.86,0.77-5.81-0.94-6.57-3.79l-2.24-11l0-0.02
	C165.04,46.3,165.23,44.87,165.94,43.63"/>
<path class="st4" d="M145.92,127.4c-0.19-1.73-0.82-2.99-2.24-4.49l-7.36-7.79l0,0c-1.1-1.1-2.55-1.72-3.99-1.72h-0.04
	c-1.48,0.01-2.89,0.67-4.08,1.9l-7.53,8.05c-1.18,1.18-1.83,2.48-1.99,3.99l-0.87,12.38c-0.11,1.63,0.04,5.68,3.86,7.97
	c2.07,1.24,5.22,1.78,10.53,1.78c6.55,0,10.81-1.14,12.99-3.49c1.4-1.5,2-3.52,1.84-6.17L145.92,127.4z M144.79,145.56
	c-2.08,2.23-6.19,3.31-12.58,3.31c-5.21,0-8.27-0.5-10.24-1.69c-3.54-2.13-3.69-5.91-3.58-7.43l0.86-12.37
	c0.14-1.36,0.74-2.55,1.83-3.64l7.53-8.05c1.08-1.12,2.35-1.71,3.68-1.72h0.04c1.29,0,2.59,0.56,3.58,1.55l7.36,7.79
	c1.34,1.42,1.91,2.55,2.09,4.15l1.13,12.37C146.63,142.31,146.08,144.19,144.79,145.56"/>
<path class="st4" d="M140.45,103.31c-1.11,1.1-1.73,2.57-1.72,4.03c0.01,1.48,0.67,2.9,1.9,4.09l8.04,7.53
	c1.18,1.18,2.48,1.83,3.99,1.99l12.38,0.87c0.2,0.01,0.43,0.02,0.68,0.02c1.89,0,5.27-0.52,7.29-3.88
	c1.24-2.07,1.77-5.22,1.77-10.54c0-6.52-1.13-10.75-3.45-12.96c-1.51-1.42-3.53-2.03-6.21-1.87l-12.38,1.13
	c-1.73,0.19-2.99,0.82-4.49,2.24L140.45,103.31L140.45,103.31z M148.64,96.36c1.42-1.34,2.55-1.91,4.16-2.09l12.37-1.12
	c2.5-0.15,4.39,0.4,5.77,1.72c2.2,2.09,3.27,6.19,3.27,12.54c0,5.21-0.51,8.27-1.69,10.24c-2.13,3.55-5.92,3.69-7.44,3.59
	l-12.37-0.86c-1.37-0.15-2.55-0.74-3.64-1.83l-8.05-7.53c-1.12-1.08-1.71-2.35-1.72-3.68c-0.01-1.3,0.55-2.62,1.55-3.62
	L148.64,96.36z"/>
<path class="st4" d="M118.72,86.9c0.19,1.73,0.82,2.99,2.24,4.49l7.36,7.79l0,0.01c1.1,1.1,2.55,1.72,3.99,1.72h0.04
	c1.48-0.01,2.89-0.67,4.08-1.9l7.53-8.05c1.18-1.18,1.83-2.48,1.99-3.99l0.87-12.38c0.11-1.63-0.04-5.67-3.86-7.97
	c-2.07-1.24-5.22-1.78-10.54-1.78c-6.55,0-10.81,1.14-12.99,3.49c-1.4,1.5-2,3.52-1.84,6.17L118.72,86.9z M119.85,68.74
	c2.08-2.23,6.19-3.31,12.58-3.31c5.21,0,8.27,0.5,10.24,1.69c3.54,2.13,3.69,5.91,3.58,7.43l-0.86,12.37
	c-0.14,1.36-0.74,2.55-1.83,3.64l-7.53,8.05c-1.08,1.12-2.35,1.71-3.68,1.72c-0.01,0-0.03,0-0.04,0c-1.29,0-2.59-0.56-3.58-1.55
	L121.38,91c-1.34-1.42-1.91-2.55-2.09-4.15l-1.13-12.37C118.02,71.99,118.56,70.11,119.85,68.74"/>
<path class="st4" d="M98.83,121.73c0.27,0,0.55-0.01,0.83-0.03l12.38-1.13c1.73-0.19,2.99-0.82,4.49-2.24l7.79-7.36l0-0.01
	c1.1-1.11,1.73-2.57,1.72-4.03c-0.01-1.48-0.67-2.89-1.9-4.09l-8.05-7.53c-1.18-1.18-2.48-1.83-3.99-1.99l-12.38-0.86
	c-1.63-0.11-5.67,0.04-7.97,3.86c-1.24,2.06-1.77,5.22-1.77,10.54c0,6.52,1.13,10.76,3.45,12.96
	C94.78,121.1,96.55,121.73,98.83,121.73 M92.26,96.63c1.87-3.12,5.03-3.6,6.8-3.6c0.24,0,0.46,0.01,0.64,0.02l12.37,0.87
	c1.36,0.14,2.55,0.74,3.64,1.83l8.05,7.53c1.11,1.08,1.71,2.35,1.72,3.68c0.01,1.3-0.56,2.62-1.55,3.61l-7.79,7.36
	c-1.42,1.34-2.55,1.91-4.16,2.09l-12.37,1.12c-2.51,0.15-4.4-0.4-5.78-1.72c-2.2-2.09-3.27-6.19-3.27-12.54
	C90.57,101.66,91.07,98.6,92.26,96.63"/>
<path class="st4" d="M370.78,143.47c-18.2,0-33.01,14.73-33.01,32.82c0,18.1,14.81,32.82,33.01,32.82
	c18.2,0,33.01-14.72,33.01-32.82C403.79,158.2,388.98,143.47,370.78,143.47 M370.78,208.54c-17.89,0-32.44-14.46-32.44-32.25
	c0-17.78,14.55-32.24,32.44-32.24c17.88,0,32.43,14.46,32.43,32.24C403.21,194.08,388.66,208.54,370.78,208.54"/>
<path class="st4" d="M209.4,143.51c-18.2,0-33.01,14.72-33.01,32.82s14.81,32.82,33.01,32.82c18.2,0,33.01-14.72,33.01-32.82
	S227.6,143.51,209.4,143.51 M209.4,208.57c-17.89,0-32.44-14.46-32.44-32.25s14.55-32.24,32.44-32.24
	c17.88,0,32.44,14.46,32.44,32.24S227.28,208.57,209.4,208.57"/>
<path class="st4" d="M435.49,9.31c4.92,0,10.48,0.46,16.45,1.78c16.8,4.24,29.52,11.17,29.95,14.54l1.13,8.48
	c1.73,0.26,7.71,0.34,8.74,2.6c1.04,2.25,2.25,5.19,4.42,9c7.7,14.98,17.23,40.25,21.29,51.33c4.17,11.35,13.57,42.41,19.74,69.69
	c5.8,25.62,9.03,53.14,9.95,67.43c1.64,25.37-0.26,41.46-1.13,50.29c-0.86,8.83-3.12,27.27-9.44,38.44
	c-6.68,11.81-19.5,21.87-27.18,21.87c-0.88,0-1.69-0.13-2.42-0.41l-26.26,5.25c-0.8,0.73-1.4,1.07-2.03,1.07
	c-0.32,0-0.65-0.09-1.02-0.26c-2.19-1.33-4.79-3.93-9.52-13.27c-4.73-9.35-13.27-30.36-14.49-33.3c-1.21-2.94-13.33-34.4-14.84-37.8
	c-1.5-3.41-3.58-9.46-6.29-13.91c-2.71-4.45-8.34-11.72-12.47-15.01c-3.96-3.16-12.87-9.46-26.14-9.46c-1.01,0-2.06,0.03-3.12,0.11
	c-4.21,0.35-11.2,2.31-17.49,2.49c-0.98,0.03-2.12,0.03-3.35,0.03c-6.64,0-16.12-0.34-20.25-0.38c-1.04-0.01-4.02-0.02-8.15-0.02
	c-11.28,0-31.07,0.03-42.78,0.03c-4.29,0-7.5,0-8.8-0.02c-1.3,0.01-4.51,0.02-8.8,0.02c-11.71,0-31.5-0.03-42.78-0.03
	c-4.13,0-7.12,0-8.15,0.02c-4.14,0.05-13.61,0.38-20.26,0.38c-1.23,0-2.36-0.01-3.35-0.03c-6.29-0.18-13.27-2.14-17.49-2.49
	c-1.07-0.08-2.11-0.11-3.12-0.11c-13.27,0-22.17,6.3-26.14,9.46c-4.12,3.29-9.75,10.56-12.47,15.01c-2.71,4.44-4.79,10.5-6.29,13.91
	c-1.5,3.41-13.62,34.86-14.83,37.8c-1.21,2.94-9.75,23.95-14.49,33.3c-4.73,9.35-7.33,11.95-9.52,13.27
	c-0.37,0.17-0.7,0.26-1.02,0.26c-0.63,0-1.23-0.34-2.03-1.07L73,344.36c-0.73,0.28-1.54,0.41-2.42,0.41
	c-7.69,0-20.5-10.07-27.18-21.87c-6.32-11.17-8.57-29.61-9.44-38.44c-0.86-8.83-2.77-24.93-1.13-50.29
	c0.93-14.3,4.16-41.81,9.96-67.43c6.17-27.28,15.57-58.34,19.74-69.69c4.07-11.08,13.59-36.36,21.29-51.33
	c2.17-3.81,3.38-6.75,4.42-9c1.04-2.25,7.01-2.34,8.74-2.6l1.13-8.48c0.43-3.38,13.16-10.3,29.95-14.54
	c5.96-1.32,11.53-1.78,16.45-1.78c8.36,0,14.86,1.32,18.35,2.03c0.95,0.26,1.34,0.72,1.5,1.44l1.27,9.3c0,0,3.55,0.34,5.11,0.77
	c5.71-1.99,23.8-3.72,28.05-4.15c3.12-0.95,10.65-1.47,14.98-1.82c23.55-1.99,58.11-2.86,76.81-2.86c0.58,0,1.18,0,1.79,0
	c19.08,0,51.11,0.91,73.87,2.86c4.33,0.35,11.86,0.87,14.98,1.82c4.24,0.43,22.33,2.17,28.05,4.15c1.56-0.43,5.11-0.77,5.11-0.77
	l1.27-8.95c0.12-1.13,0.55-1.53,1.5-1.79C420.63,10.64,427.13,9.31,435.49,9.31 M435.49,8.45c-8.42,0-14.98,1.33-18.49,2.05l-0.03,0
	l-0.05,0.01c-1.35,0.37-1.99,1.13-2.13,2.54l-1.17,8.24c-1.05,0.12-3.07,0.36-4.32,0.67c-5.7-1.87-21.76-3.49-27.09-4.02l-0.83-0.08
	c-2.96-0.88-9.23-1.37-13.82-1.73l-1.25-0.1c-21.87-1.88-53.75-2.86-73.94-2.86l-1.79,0c-16.65,0-52.25,0.78-76.88,2.86l-1.25,0.1
	c-4.59,0.36-10.87,0.85-13.82,1.73l-0.83,0.08c-5.33,0.54-21.39,2.15-27.09,4.02c-1.24-0.31-3.26-0.55-4.32-0.67l-1.18-8.63l0-0.03
	l-0.01-0.03c-0.24-1.09-0.91-1.75-2.11-2.08l-0.03-0.01L163,10.5c-3.52-0.72-10.07-2.05-18.49-2.05c-5.63,0-11.23,0.6-16.63,1.79
	C111.81,14.3,97.8,21.29,97.25,25.52l-1.04,7.81c-0.18,0.02-0.37,0.03-0.58,0.06c-3.6,0.33-7.19,0.83-8.17,2.96
	c-0.21,0.44-0.42,0.92-0.64,1.42c-0.9,2-2.02,4.49-3.74,7.52C75.6,59.81,66.49,83.76,61.72,96.75
	c-4.34,11.82-13.62,42.65-19.77,69.79c-6.19,27.34-9.18,55.34-9.98,67.57c-1.54,23.8,0.02,39.35,0.95,48.63l0.18,1.8
	c1.72,17.59,4.94,30.63,9.55,38.78c6.73,11.89,19.78,22.31,27.93,22.31c0.9,0,1.73-0.12,2.48-0.37l25.8,5.16
	c0.7,0.61,1.47,1.14,2.43,1.14c0.44,0,0.89-0.11,1.39-0.34l0.04-0.02l0.03-0.02c2.21-1.34,4.93-3.91,9.85-13.62
	c2.92-5.77,7.68-16.69,14.14-32.45l0.37-0.91c0.47-1.13,2.56-6.51,4.98-12.73c3.98-10.23,8.93-22.97,9.85-25.05
	c0.42-0.95,0.89-2.12,1.38-3.36c1.3-3.25,2.92-7.29,4.85-10.45c2.86-4.68,8.36-11.67,12.27-14.78c7.72-6.15,16.34-9.28,25.61-9.28
	c1.01,0,2.04,0.04,3.06,0.11c1.63,0.13,3.77,0.53,6.04,0.95c3.58,0.67,7.63,1.42,11.48,1.53c0.94,0.03,2.08,0.04,3.37,0.04
	c4.22,0,9.64-0.13,13.99-0.25c2.56-0.06,4.77-0.12,6.27-0.14c0.95-0.01,3.61-0.02,8.14-0.02c5.59,0,13.27,0.01,21.01,0.02
	c7.89,0.01,15.86,0.02,21.77,0.02c4.73,0,7.61-0.01,8.81-0.02c1.18,0.01,4.06,0.02,8.79,0.02c5.91,0,13.88-0.01,21.77-0.02
	c7.75-0.01,15.42-0.02,21.01-0.02c4.53,0,7.19,0,8.14,0.02c1.51,0.02,3.72,0.07,6.28,0.14c4.35,0.11,9.77,0.25,13.99,0.25
	c1.3,0,2.43-0.01,3.37-0.04c3.85-0.1,7.91-0.86,11.49-1.53c2.27-0.42,4.42-0.82,6.05-0.95c1.01-0.07,2.04-0.11,3.05-0.11
	c9.27,0,17.88,3.12,25.61,9.28c3.9,3.11,9.41,10.1,12.27,14.78c1.93,3.16,3.55,7.2,4.85,10.45c0.5,1.24,0.97,2.41,1.38,3.36
	c0.92,2.09,5.87,14.82,9.85,25.05c2.42,6.22,4.51,11.6,4.98,12.73l0.37,0.91c6.46,15.76,11.22,26.68,14.14,32.45
	c4.91,9.71,7.64,12.29,9.85,13.62l0.03,0.02l0.04,0.02c0.49,0.23,0.95,0.34,1.39,0.34c0.95,0,1.73-0.52,2.43-1.13l25.8-5.16
	c0.75,0.25,1.58,0.37,2.48,0.37c8.15,0,21.21-10.42,27.93-22.31c4.61-8.14,7.82-21.19,9.54-38.78l0.18-1.8
	c0.93-9.29,2.49-24.84,0.95-48.63c-0.8-12.23-3.79-40.24-9.98-67.57c-6.14-27.14-15.43-57.97-19.77-69.79
	c-4.77-12.99-13.88-36.93-21.34-51.43c-1.74-3.06-2.86-5.55-3.75-7.55c-0.23-0.5-0.44-0.98-0.65-1.42
	c-0.98-2.12-4.58-2.63-8.17-2.96c-0.21-0.02-0.4-0.04-0.58-0.06l-1.04-7.82c-0.54-4.22-14.55-11.21-30.59-15.27
	C446.72,9.05,441.13,8.45,435.49,8.45"/>
</svg>
